<?xml version="1.0" encoding="utf-8"?>
<!-- Generator: Adobe Illustrator 23.0.0, SVG Export Plug-In . SVG Version: 6.00 Build 0)  -->
<svg version="1.1" id="Layer_1" xmlns="http://www.w3.org/2000/svg" xmlns:xlink="http://www.w3.org/1999/xlink" x="0px" y="0px"
	 viewBox="0 0 124 124" style="enable-background:new 0 0 124 124;" xml:space="preserve">
<style type="text/css">
	.st0{opacity:0.99;clip-path:url(#SVGID_4_);}
	.st1{fill:#333333;}
</style>
<g>
	<g>
		<defs>
			<circle id="SVGID_1_" cx="62" cy="62" r="61"/>
		</defs>
		<clipPath id="SVGID_2_">
			<use xlink:href="#SVGID_1_"  style="overflow:visible;"/>
		</clipPath>
	</g>
	<g>
		<defs>
			<circle id="SVGID_3_" cx="62" cy="62" r="61"/>
		</defs>
		<clipPath id="SVGID_4_">
			<use xlink:href="#SVGID_3_"  style="overflow:visible;"/>
		</clipPath>
		<g class="st0">
			<path class="st1" d="M55.39,1c4.33,0,8.66,0,12.99,0c0.53,0.11,1.05,0.26,1.58,0.33c33.57,4.35,57.39,35.93,52.39,69.46
				c-4.2,28.16-27.31,49.77-55.6,52.02c-28.13,2.23-54.18-15.15-62.96-41.97c-1.33-4.07-2.02-8.26-2.8-12.45c0-4.33,0-8.66,0-12.99
				c0.12-0.59,0.26-1.18,0.35-1.78C4.82,28.46,23.49,8.03,48.23,2.36C50.6,1.82,53,1.45,55.39,1z M92.22,83.83
				c0.39-0.02,1.27-0.03,2.14-0.1c7.13-0.59,13.91-5.95,15.99-12.61c2.15-6.89-0.08-13.99-5.9-18.76
				c-4.52-3.69-9.77-4.73-15.44-4.17c-9.74,0.97-17.31,9.89-16.41,19.32C73.48,76.82,81.66,83.79,92.22,83.83z M49.15,57
				c0-5.34,0.06-9.4-0.02-13.45c-0.06-2.89-1.69-4.98-4.36-5.31c-4.47-0.56-7.25-0.27-8.85,2.7c-0.46,0.85-0.6,1.79-0.64,2.74
				c-0.03,0.74-0.03,1.49-0.03,2.23c0,6.9,0.03,13.79-0.03,20.69c-0.03,3.71-2.08,5.95-5.66,6.07c-2.98,0.11-5.83-0.65-8.02-2.79
				c-1.38-1.35-2.43-1.12-3.62,0.08c-2.98,3.02-2.91,7.6,0.14,10.53c1.51,1.45,3.35,2.28,5.34,2.77c4.74,1.19,9.5,1.25,14.25,0.06
				c6.63-1.67,10.35-6.03,11.16-12.81C49.42,65.58,49,60.64,49.15,57z M68.35,66.17c0-4.05,0.05-8.11-0.02-12.16
				c-0.05-3.17-1.8-5.01-4.95-5.31c-0.94-0.09-1.89-0.07-2.83-0.05c-3.89,0.11-5.85,2.06-5.87,5.93c-0.03,7.57-0.03,15.13,0,22.7
				c0.01,4.09,1.89,5.96,5.93,6.03c0.81,0.01,1.62,0.02,2.43-0.01c3.33-0.15,5.26-2.06,5.3-5.37
				C68.39,74.01,68.35,70.09,68.35,66.17z M61.68,32.73c-3.75,0-5.84,1.12-6.78,3.64c-1.24,3.32,0.4,7.24,3.64,7.82
				c5.23,0.93,8.87,0.36,10.1-3.97c0.06-0.19,0.07-0.4,0.09-0.6C69.25,35.27,66.64,32.73,61.68,32.73z"/>
			<path class="st1" d="M99.5,66.03c-0.05,4.35-3.7,8.1-7.79,7.99c-4.19-0.12-7.65-3.89-7.54-8.23c0.11-4.31,3.6-7.89,7.68-7.89
				C95.98,57.89,99.55,61.7,99.5,66.03z"/>
		</g>
	</g>
	<g>
		<defs>
			<circle id="SVGID_5_" cx="62" cy="62" r="61"/>
		</defs>
		<clipPath id="SVGID_6_">
			<use xlink:href="#SVGID_5_"  style="overflow:visible;"/>
		</clipPath>
	</g>
</g>
</svg>
